<svg xmlns="http://www.w3.org/2000/svg" xmlns:xlink="http://www.w3.org/1999/xlink" viewBox="0 0 336.33 79.33"><defs><style>.cls-1{isolation:isolate;}.cls-2{fill:#fff;}.cls-3,.cls-4,.cls-5,.cls-6{mix-blend-mode:multiply;}.cls-3{fill:url(#linear-gradient);}.cls-4{fill:url(#linear-gradient-2);}.cls-5{fill:url(#linear-gradient-3);}</style><linearGradient id="linear-gradient" x1="74.73" y1="49.17" x2="20.62" y2="68.33" gradientUnits="userSpaceOnUse"><stop offset="0" stop-color="#e72a64" stop-opacity="0"/><stop offset="1" stop-color="#ac3b70" stop-opacity="0.8"/></linearGradient><linearGradient id="linear-gradient-2" x1="10.28" y1="76.58" x2="26.07" y2="23.47" gradientUnits="userSpaceOnUse"><stop offset="0" stop-color="#65c8d2" stop-opacity="0.18"/><stop offset="0.16" stop-color="#74c7d4" stop-opacity="0"/><stop offset="1" stop-color="#74c7d4"/></linearGradient><linearGradient id="linear-gradient-3" x1="17.58" y1="21.28" x2="60.28" y2="21.28" gradientUnits="userSpaceOnUse"><stop offset="0" stop-color="#ffcb04" stop-opacity="0"/><stop offset="0.1" stop-color="#ffcb04" stop-opacity="0.07"/><stop offset="0.31" stop-color="#ffcb04" stop-opacity="0.25"/><stop offset="0.59" stop-color="#ffcb04" stop-opacity="0.54"/><stop offset="0.95" stop-color="#ffcb04" stop-opacity="0.94"/><stop offset="1" stop-color="#ffcb04"/></linearGradient></defs><title>Appium logo</title><g class="cls-1"><g id="Layer_1" data-name="Layer 1"><path class="cls-2" d="M57.45,36.14q-.65,1.53-1.43,3A35.83,35.83,0,0,0,32.54,25.74a36.52,36.52,0,0,0-4.73-.31A35.72,35.72,0,0,0,4.95,33.67,35.88,35.88,0,0,1,57.16,7.58v0A36.23,36.23,0,0,1,59,12.9,35.71,35.71,0,0,1,57.45,36.14Z"/><path class="cls-2" d="M53.08,72.88A35.88,35.88,0,0,1,4.55,41.1v0a35.73,35.73,0,0,1,20-13.87,36.25,36.25,0,0,1,4.65-.92q1.64-.22,3.27-.28A35.89,35.89,0,0,0,53.08,72.88Z"/><path class="cls-2" d="M76.28,39.31A35.81,35.81,0,0,1,63.26,67a26.72,26.72,0,0,1-3.66,2.66A36.14,36.14,0,0,1,34.5,55.56q-1-1.32-1.88-2.74A35.89,35.89,0,0,0,63.7,17.26a36.26,36.26,0,0,0-.44-5.61A35.83,35.83,0,0,1,76.28,39.31Z"/><path class="cls-3" d="M76.28,39.31A35.81,35.81,0,0,1,63.26,67a26.78,26.78,0,0,1-3.66,2.66A36.14,36.14,0,0,1,34.5,55.56q-1-1.32-1.88-2.74a35.89,35.89,0,0,0,43.2-19.1l0,0A36.46,36.46,0,0,1,76.28,39.31Z"/><path class="cls-4" d="M21.18,50.36a36,36,0,0,0,6.57,22.54A35.87,35.87,0,0,1,4.53,40.8c0,.09,0,.19,0,.29a35.73,35.73,0,0,1,20-13.87,36.24,36.24,0,0,1,4.65-.92q1.64-.22,3.27-.28A36,36,0,0,0,21.18,50.36Z"/><path class="cls-5" d="M57.45,36.14q-.65,1.53-1.43,3A35.85,35.85,0,0,0,40.4,17.08a36.55,36.55,0,0,0-4.15-2.28,35.67,35.67,0,0,0-18.67-3.2,35.85,35.85,0,0,1,39.59-4v0A36.21,36.21,0,0,1,59,12.9,35.71,35.71,0,0,1,57.45,36.14Z"/><path class="cls-6" d="M4.49,41.58v.15l.07-.08Z"/><path class="cls-2" d="M100.82,15.23a28.76,28.76,0,0,0-5.1.55.5.5,0,0,0-.4.54l.15,1.48a.5.5,0,0,0,.6.44,22.73,22.73,0,0,1,4.36-.57c2.51,0,3.43.92,3.43,3.8v.7a12.44,12.44,0,0,0-2.91-.31c-3.68,0-6.71,1.41-6.71,4.93s2.45,5.09,6.19,5.09a43.61,43.61,0,0,0,6.22-.61v-10C106.64,17,105.08,15.23,100.82,15.23Zm-.06,14.28c-2.24,0-3.65-.67-3.65-2.73,0-1.9,1.75-2.6,4.07-2.6a11.92,11.92,0,0,1,2.67.25v4.84A18.17,18.17,0,0,1,100.76,29.51Zm24.91-5.9c0-4.93-2.63-8.33-8.3-8.33a23.1,23.1,0,0,0-5.73.83V36.71a.5.5,0,0,0,.5.5H114a.5.5,0,0,0,.5-.5V30.84a7.71,7.71,0,0,0,4,1.07C123.09,31.91,125.66,28.45,125.66,23.61Zm-3,0c0,3.43-1.41,5.79-4.56,5.79a6,6,0,0,1-3.65-1.23v-10a10.82,10.82,0,0,1,2.82-.31C120.7,17.82,122.69,19.9,122.69,23.61Zm21.38,0c0-4.93-2.63-8.33-8.3-8.33a23.1,23.1,0,0,0-5.73.83V36.71a.5.5,0,0,0,.5.5h1.85a.5.5,0,0,0,.5-.5V30.84a7.71,7.71,0,0,0,4,1.07C141.5,31.91,144.08,28.45,144.08,23.61Zm-3,0c0,3.43-1.41,5.79-4.56,5.79a6,6,0,0,1-3.65-1.23v-10a10.82,10.82,0,0,1,2.82-.31C139.11,17.82,141.11,19.9,141.11,23.61Zm8.76-11.12a1.94,1.94,0,0,0,2-2,2,2,0,1,0-4,0A1.94,1.94,0,0,0,149.87,12.49Zm.94,3.12H149a.5.5,0,0,0-.5.5V31a.5.5,0,0,0,.5.5h1.85a.5.5,0,0,0,.5-.5V16.11A.5.5,0,0,0,150.81,15.61Zm19,.52V31.19a29.67,29.67,0,0,1-6.92.7c-4.53,0-6.56-2.6-6.56-7.32V16.13a.5.5,0,0,1,.5-.5h1.85a.5.5,0,0,1,.5.5V24c0,3.89,1.1,5.42,4,5.42a29.69,29.69,0,0,0,3.77-.31V16.13a.5.5,0,0,1,.5-.5h1.85A.5.5,0,0,1,169.78,16.13Zm5,14.91v-15a34.62,34.62,0,0,1,7.23-.8,5.53,5.53,0,0,1,4.14,1.35,17.27,17.27,0,0,1,6.19-1.35c4.35,0,5.94,2.57,5.94,7.32V31a.5.5,0,0,1-.5.5h-1.85a.5.5,0,0,1-.5-.5V23.21c0-3.46-.46-5.42-3.4-5.42a10.59,10.59,0,0,0-4.6,1,12.05,12.05,0,0,1,.52,3.77V31a.5.5,0,0,1-.5.5H185.6a.5.5,0,0,1-.5-.5V23.21c0-3.52-.58-5.42-3.4-5.42a25.79,25.79,0,0,0-4.07.31V31a.5.5,0,0,1-.5.5h-1.85A.5.5,0,0,1,174.78,31Z"/><path class="cls-2" d="M204.43,15.06v.74h-.94v2.36h-.84V15.8h-.94v-.74Zm4,0q.08.48.13,1.21t.12,1.88h-.79q0-.48,0-1t-.07-1l-.23.42-.24.47-.22.43-.15.32h-.47l-.15-.32L206,17l-.25-.47-.23-.42c0,.31,0,.64-.07,1s0,.71,0,1h-.8l.15-1.88q.06-.74.13-1.21h.84l.4.79.47.95.49-.95q.24-.46.4-.79Z"/><path class="cls-2" d="M108.93,45.35a9.13,9.13,0,0,1,3.22,5.39h-5.08a4.67,4.67,0,0,0-1.73-2.16,4.83,4.83,0,0,0-2.77-.79,4.21,4.21,0,0,0-3.4,1.54,6.23,6.23,0,0,0-1.29,4.13,6.17,6.17,0,0,0,1.29,4.11,4.23,4.23,0,0,0,3.4,1.53,4.83,4.83,0,0,0,2.77-.79,4.69,4.69,0,0,0,1.73-2.13h5.08a9.17,9.17,0,0,1-3.22,5.38,9.67,9.67,0,0,1-6.28,2,9.9,9.9,0,0,1-5.08-1.28,8.67,8.67,0,0,1-3.38-3.58,12.15,12.15,0,0,1,0-10.5,8.68,8.68,0,0,1,3.38-3.58,9.9,9.9,0,0,1,5.08-1.28A9.71,9.71,0,0,1,108.93,45.35Z"/><path class="cls-2" d="M135.56,44.55a9.52,9.52,0,0,1,3.61,3.62,11,11,0,0,1,0,10.49,9.58,9.58,0,0,1-3.62,3.64,10.49,10.49,0,0,1-10.14,0,9.58,9.58,0,0,1-3.62-3.64,11,11,0,0,1,0-10.49,9.61,9.61,0,0,1,3.62-3.62,10.55,10.55,0,0,1,10.17,0Zm-8.85,4.69a6,6,0,0,0-1.39,4.17,6,6,0,0,0,1.39,4.16,5.31,5.31,0,0,0,7.48,0,5.94,5.94,0,0,0,1.4-4.16,6,6,0,0,0-1.39-4.16,5.34,5.34,0,0,0-7.5,0Z"/><path class="cls-2" d="M167,63.41h-4.8l-8-12.19V63.41h-4.8V43.55h4.8l8,12.3V43.55H167Z"/><path class="cls-2" d="M189.44,43.55v3.82h-8.14v4.35h6.29v3.65h-6.29v8h-4.8V43.55Z"/><path class="cls-2" d="M202.89,47.37v4.16h6.71v3.62h-6.71v4.41h7.55v3.85H198.09V43.55h12.36v3.82Z"/><path class="cls-2" d="M229.55,63.41l-4.3-7.5h-1.09v7.5h-4.8V43.55h8.2a8.86,8.86,0,0,1,4,.81A5.64,5.64,0,0,1,234,46.6a6.4,6.4,0,0,1,.81,3.24,5.77,5.77,0,0,1-1.19,3.68,6.11,6.11,0,0,1-3.47,2.08l4.72,7.81Zm-5.39-10.78h3a3,3,0,0,0,2.11-.63,2.44,2.44,0,0,0,.67-1.87,2.48,2.48,0,0,0-.69-1.85,2.88,2.88,0,0,0-2.09-.67h-3Z"/><path class="cls-2" d="M248.19,47.37v4.16h6.71v3.62h-6.71v4.41h7.55v3.85H243.39V43.55h12.36v3.82Z"/><path class="cls-2" d="M282.29,63.41h-4.8l-8-12.19V63.41h-4.8V43.55h4.8l8,12.3V43.55h4.8Z"/><path class="cls-2" d="M307.13,45.35a9.13,9.13,0,0,1,3.22,5.39h-5.08a4.67,4.67,0,0,0-1.73-2.16,4.83,4.83,0,0,0-2.77-.79,4.21,4.21,0,0,0-3.4,1.54,6.23,6.23,0,0,0-1.29,4.13,6.17,6.17,0,0,0,1.29,4.11,4.23,4.23,0,0,0,3.4,1.53,4.83,4.83,0,0,0,2.77-.79,4.69,4.69,0,0,0,1.73-2.13h5.08a9.17,9.17,0,0,1-3.22,5.38,9.67,9.67,0,0,1-6.28,2,9.9,9.9,0,0,1-5.08-1.28,8.67,8.67,0,0,1-3.38-3.58,12.15,12.15,0,0,1,0-10.5,8.68,8.68,0,0,1,3.38-3.58,9.9,9.9,0,0,1,5.08-1.28A9.71,9.71,0,0,1,307.13,45.35Z"/><path class="cls-2" d="M324,47.37v4.16h6.71v3.62H324v4.41h7.55v3.85H319.22V43.55h12.36v3.82Z"/></g></g></svg>